<svg xmlns="http://www.w3.org/2000/svg" xmlns:xlink="http://www.w3.org/1999/xlink" width="400" zoomAndPan="magnify" viewBox="0 0 300 56.249996" height="75" preserveAspectRatio="xMidYMid meet" version="1.0"><defs><g/><clipPath id="035c0076ff"><path d="M 28.835938 2.878906 L 31.757812 2.878906 L 31.757812 27.757812 L 28.835938 27.757812 Z M 28.835938 2.878906 " clip-rule="nonzero"/></clipPath><clipPath id="9d1244746b"><path d="M 30.296875 27.757812 L 28.835938 2.886719 L 31.757812 2.886719 Z M 30.296875 27.757812 " clip-rule="nonzero"/></clipPath><clipPath id="365c61ea1b"><path d="M 28.835938 27.757812 L 31.757812 27.757812 L 31.757812 52.636719 L 28.835938 52.636719 Z M 28.835938 27.757812 " clip-rule="nonzero"/></clipPath><clipPath id="89a942456f"><path d="M 30.296875 27.757812 L 31.757812 52.625 L 28.835938 52.625 Z M 30.296875 27.757812 " clip-rule="nonzero"/></clipPath><clipPath id="d48914bd0c"><path d="M 30.296875 26.296875 L 55.175781 26.296875 L 55.175781 29.21875 L 30.296875 29.21875 Z M 30.296875 26.296875 " clip-rule="nonzero"/></clipPath><clipPath id="aa1480021e"><path d="M 30.296875 27.757812 L 55.164062 26.296875 L 55.164062 29.21875 Z M 30.296875 27.757812 " clip-rule="nonzero"/></clipPath><clipPath id="b916a70f40"><path d="M 5.417969 26.296875 L 30.296875 26.296875 L 30.296875 29.21875 L 5.417969 29.21875 Z M 5.417969 26.296875 " clip-rule="nonzero"/></clipPath><clipPath id="fabcedf965"><path d="M 30.296875 27.757812 L 5.429688 29.21875 L 5.429688 26.296875 Z M 30.296875 27.757812 " clip-rule="nonzero"/></clipPath><clipPath id="19f2e9029e"><path d="M 30 3 L 38 3 L 38 28 L 30 28 Z M 30 3 " clip-rule="nonzero"/></clipPath><clipPath id="166f9f92ed"><path d="M 31.710938 28.121094 L 28.882812 27.390625 L 35.105469 3.304688 L 37.9375 4.035156 Z M 31.710938 28.121094 " clip-rule="nonzero"/></clipPath><clipPath id="fa2b7a19cb"><path d="M 30.296875 27.757812 L 35.105469 3.3125 L 37.933594 4.046875 Z M 30.296875 27.757812 " clip-rule="nonzero"/></clipPath><clipPath id="ba0647806b"><path d="M 22 27 L 31 27 L 31 53 L 22 53 Z M 22 27 " clip-rule="nonzero"/></clipPath><clipPath id="e7858dc0cd"><path d="M 28.882812 27.390625 L 31.710938 28.125 L 25.488281 52.210938 L 22.65625 51.476562 Z M 28.882812 27.390625 " clip-rule="nonzero"/></clipPath><clipPath id="40dd54bbe3"><path d="M 30.296875 27.757812 L 25.488281 52.199219 L 22.660156 51.46875 Z M 30.296875 27.757812 " clip-rule="nonzero"/></clipPath><clipPath id="4c7e6374cf"><path d="M 30 27 L 55 27 L 55 36 L 30 36 Z M 30 27 " clip-rule="nonzero"/></clipPath><clipPath id="5c8dc26214"><path d="M 29.929688 29.171875 L 30.664062 26.34375 L 54.75 32.566406 L 54.019531 35.398438 Z M 29.929688 29.171875 " clip-rule="nonzero"/></clipPath><clipPath id="04bdff30f0"><path d="M 30.296875 27.757812 L 54.738281 32.566406 L 54.007812 35.394531 Z M 30.296875 27.757812 " clip-rule="nonzero"/></clipPath><clipPath id="6bee5c0534"><path d="M 5 20 L 31 20 L 31 28 L 5 28 Z M 5 20 " clip-rule="nonzero"/></clipPath><clipPath id="4bf0618cef"><path d="M 30.660156 26.34375 L 29.929688 29.171875 L 5.84375 22.945312 L 6.574219 20.117188 Z M 30.660156 26.34375 " clip-rule="nonzero"/></clipPath><clipPath id="b83836f94c"><path d="M 30.296875 27.757812 L 5.851562 22.949219 L 6.585938 20.121094 Z M 30.296875 27.757812 " clip-rule="nonzero"/></clipPath><clipPath id="1979f31872"><path d="M 30 5 L 44 5 L 44 28 L 30 28 Z M 30 5 " clip-rule="nonzero"/></clipPath><clipPath id="0ad8e66f92"><path d="M 31.570312 28.476562 L 29.023438 27.035156 L 41.285156 5.390625 L 43.828125 6.828125 Z M 31.570312 28.476562 " clip-rule="nonzero"/></clipPath><clipPath id="b09120a43d"><path d="M 30.296875 27.757812 L 41.28125 5.398438 L 43.824219 6.839844 Z M 30.296875 27.757812 " clip-rule="nonzero"/></clipPath><clipPath id="4fc28110b1"><path d="M 16 27 L 31 27 L 31 51 L 16 51 Z M 16 27 " clip-rule="nonzero"/></clipPath><clipPath id="a7b9480343"><path d="M 29.023438 27.039062 L 31.566406 28.476562 L 19.308594 50.125 L 16.765625 48.683594 Z M 29.023438 27.039062 " clip-rule="nonzero"/></clipPath><clipPath id="9ea8d6b0e4"><path d="M 30.296875 27.757812 L 19.3125 50.117188 L 16.769531 48.675781 Z M 30.296875 27.757812 " clip-rule="nonzero"/></clipPath><clipPath id="342508dc1d"><path d="M 30 27 L 53 27 L 53 42 L 30 42 Z M 30 27 " clip-rule="nonzero"/></clipPath><clipPath id="14f7abd256"><path d="M 29.578125 29.027344 L 31.015625 26.484375 L 52.664062 38.746094 L 51.222656 41.289062 Z M 29.578125 29.027344 " clip-rule="nonzero"/></clipPath><clipPath id="642a379be8"><path d="M 30.296875 27.757812 L 52.65625 38.742188 L 51.214844 41.285156 Z M 30.296875 27.757812 " clip-rule="nonzero"/></clipPath><clipPath id="025d61b175"><path d="M 7 14 L 31 14 L 31 28 L 7 28 Z M 7 14 " clip-rule="nonzero"/></clipPath><clipPath id="908fd4cabc"><path d="M 31.015625 26.484375 L 29.574219 29.027344 L 7.929688 16.765625 L 9.371094 14.222656 Z M 31.015625 26.484375 " clip-rule="nonzero"/></clipPath><clipPath id="05dbc1b6c7"><path d="M 30.296875 27.757812 L 7.9375 16.773438 L 9.378906 14.230469 Z M 30.296875 27.757812 " clip-rule="nonzero"/></clipPath><clipPath id="95c731f736"><path d="M 30 9 L 49 9 L 49 28 L 30 28 Z M 30 9 " clip-rule="nonzero"/></clipPath><clipPath id="25f37a0c5d"><path d="M 31.332031 28.789062 L 29.265625 26.722656 L 46.855469 9.132812 L 48.921875 11.199219 Z M 31.332031 28.789062 " clip-rule="nonzero"/></clipPath><clipPath id="df8b762f2d"><path d="M 30.296875 27.757812 L 46.847656 9.140625 L 48.914062 11.207031 Z M 30.296875 27.757812 " clip-rule="nonzero"/></clipPath><clipPath id="be67e1adaa"><path d="M 11 27 L 31 27 L 31 47 L 11 47 Z M 11 27 " clip-rule="nonzero"/></clipPath><clipPath id="6ab2a40272"><path d="M 29.261719 26.722656 L 31.328125 28.789062 L 13.738281 46.382812 L 11.671875 44.316406 Z M 29.261719 26.722656 " clip-rule="nonzero"/></clipPath><clipPath id="1dce4cfc3e"><path d="M 30.296875 27.757812 L 13.746094 46.375 L 11.679688 44.308594 Z M 30.296875 27.757812 " clip-rule="nonzero"/></clipPath><clipPath id="9f90d1fccd"><path d="M 30 27 L 49 27 L 49 47 L 30 47 Z M 30 27 " clip-rule="nonzero"/></clipPath><clipPath id="f7db728ea6"><path d="M 29.265625 28.789062 L 31.332031 26.722656 L 48.921875 44.316406 L 46.855469 46.382812 Z M 29.265625 28.789062 " clip-rule="nonzero"/></clipPath><clipPath id="4ad3c09a0a"><path d="M 30.296875 27.757812 L 48.914062 44.308594 L 46.847656 46.375 Z M 30.296875 27.757812 " clip-rule="nonzero"/></clipPath><clipPath id="c09f0a2bab"><path d="M 11 9 L 31 9 L 31 28 L 11 28 Z M 11 9 " clip-rule="nonzero"/></clipPath><clipPath id="0b6545eaab"><path d="M 31.328125 26.722656 L 29.261719 28.789062 L 11.671875 11.199219 L 13.738281 9.132812 Z M 31.328125 26.722656 " clip-rule="nonzero"/></clipPath><clipPath id="7db092ed9d"><path d="M 30.296875 27.757812 L 11.679688 11.207031 L 13.746094 9.140625 Z M 30.296875 27.757812 " clip-rule="nonzero"/></clipPath><clipPath id="539e23f9ba"><path d="M 30 14 L 53 14 L 53 28 L 30 28 Z M 30 14 " clip-rule="nonzero"/></clipPath><clipPath id="89d070c43a"><path d="M 31.03125 29.019531 L 29.5625 26.492188 L 51.078125 14.003906 L 52.546875 16.53125 Z M 31.03125 29.019531 " clip-rule="nonzero"/></clipPath><clipPath id="16fc3e0768"><path d="M 30.296875 27.757812 L 51.070312 14.007812 L 52.539062 16.535156 Z M 30.296875 27.757812 " clip-rule="nonzero"/></clipPath><clipPath id="e78b4f36ca"><path d="M 8 27 L 31 27 L 31 42 L 8 42 Z M 8 27 " clip-rule="nonzero"/></clipPath><clipPath id="e561d27760"><path d="M 29.5625 26.492188 L 31.03125 29.019531 L 9.515625 41.511719 L 8.046875 38.984375 Z M 29.5625 26.492188 " clip-rule="nonzero"/></clipPath><clipPath id="6ca4225e9e"><path d="M 30.296875 27.757812 L 9.523438 41.507812 L 8.054688 38.976562 Z M 30.296875 27.757812 " clip-rule="nonzero"/></clipPath><clipPath id="5819f964db"><path d="M 30 27 L 45 27 L 45 50 L 30 50 Z M 30 27 " clip-rule="nonzero"/></clipPath><clipPath id="a96591bb7d"><path d="M 29.035156 28.492188 L 31.5625 27.023438 L 44.050781 48.539062 L 41.523438 50.007812 Z M 29.035156 28.492188 " clip-rule="nonzero"/></clipPath><clipPath id="a94a1342a6"><path d="M 30.296875 27.757812 L 44.046875 48.53125 L 41.519531 50 Z M 30.296875 27.757812 " clip-rule="nonzero"/></clipPath><clipPath id="c1625e356c"><path d="M 16 5 L 31 5 L 31 28 L 16 28 Z M 16 5 " clip-rule="nonzero"/></clipPath><clipPath id="348ce046be"><path d="M 31.558594 27.023438 L 29.03125 28.492188 L 16.542969 6.976562 L 19.070312 5.507812 Z M 31.558594 27.023438 " clip-rule="nonzero"/></clipPath><clipPath id="38301754c8"><path d="M 30.296875 27.757812 L 16.546875 6.984375 L 19.074219 5.515625 Z M 30.296875 27.757812 " clip-rule="nonzero"/></clipPath><clipPath id="23d3bb2fa5"><path d="M 30 20 L 55 20 L 55 28 L 30 28 Z M 30 20 " clip-rule="nonzero"/></clipPath><clipPath id="4ddd0f469c"><path d="M 30.570312 29.171875 L 29.828125 26.34375 L 53.898438 20.046875 L 54.636719 22.875 Z M 30.570312 29.171875 " clip-rule="nonzero"/></clipPath><clipPath id="527e703eb3"><path d="M 30.199219 27.757812 L 53.890625 20.050781 L 54.628906 22.878906 Z M 30.199219 27.757812 " clip-rule="nonzero"/></clipPath><clipPath id="f1a5342dc2"><path d="M 5 27 L 31 27 L 31 36 L 5 36 Z M 5 27 " clip-rule="nonzero"/></clipPath><clipPath id="498ce9fdce"><path d="M 29.828125 26.34375 L 30.570312 29.171875 L 6.5 35.46875 L 5.761719 32.640625 Z M 29.828125 26.34375 " clip-rule="nonzero"/></clipPath><clipPath id="4faa35090e"><path d="M 30.199219 27.757812 L 6.511719 35.464844 L 5.769531 32.636719 Z M 30.199219 27.757812 " clip-rule="nonzero"/></clipPath><clipPath id="2e9edf197a"><path d="M 30 27 L 38 27 L 38 53 L 30 53 Z M 30 27 " clip-rule="nonzero"/></clipPath><clipPath id="53d6daa465"><path d="M 28.785156 28.128906 L 31.613281 27.386719 L 37.910156 51.457031 L 35.082031 52.195312 Z M 28.785156 28.128906 " clip-rule="nonzero"/></clipPath><clipPath id="8b0de723ac"><path d="M 30.199219 27.757812 L 37.90625 51.445312 L 35.078125 52.1875 Z M 30.199219 27.757812 " clip-rule="nonzero"/></clipPath><clipPath id="b9893cf39d"><path d="M 22 3 L 31 3 L 31 28 L 22 28 Z M 22 3 " clip-rule="nonzero"/></clipPath><clipPath id="fd9d423dea"><path d="M 31.613281 27.386719 L 28.785156 28.125 L 22.488281 4.058594 L 25.316406 3.320312 Z M 31.613281 27.386719 " clip-rule="nonzero"/></clipPath><clipPath id="2156062406"><path d="M 30.199219 27.757812 L 22.492188 4.066406 L 25.320312 3.328125 Z M 30.199219 27.757812 " clip-rule="nonzero"/></clipPath></defs><g clip-path="url(#035c0076ff)"><g clip-path="url(#9d1244746b)"><path fill="#ffffff" d="M 31.757812 27.757812 L 28.835938 27.757812 L 28.835938 2.890625 L 31.757812 2.890625 Z M 31.757812 27.757812 " fill-opacity="1" fill-rule="nonzero"/></g></g><g clip-path="url(#365c61ea1b)"><g clip-path="url(#89a942456f)"><path fill="#ffffff" d="M 28.835938 27.757812 L 31.757812 27.757812 L 31.757812 52.625 L 28.835938 52.625 Z M 28.835938 27.757812 " fill-opacity="1" fill-rule="nonzero"/></g></g><g clip-path="url(#d48914bd0c)"><g clip-path="url(#aa1480021e)"><path fill="#ffffff" d="M 30.296875 29.21875 L 30.296875 26.296875 L 55.164062 26.296875 L 55.164062 29.21875 Z M 30.296875 29.21875 " fill-opacity="1" fill-rule="nonzero"/></g></g><g clip-path="url(#b916a70f40)"><g clip-path="url(#fabcedf965)"><path fill="#ffffff" d="M 30.296875 26.296875 L 30.296875 29.21875 L 5.429688 29.21875 L 5.429688 26.296875 Z M 30.296875 26.296875 " fill-opacity="1" fill-rule="nonzero"/></g></g><g clip-path="url(#19f2e9029e)"><g clip-path="url(#166f9f92ed)"><g clip-path="url(#fa2b7a19cb)"><path fill="#ffffff" d="M 31.710938 28.121094 L 28.882812 27.390625 L 35.105469 3.316406 L 37.933594 4.046875 Z M 31.710938 28.121094 " fill-opacity="1" fill-rule="nonzero"/></g></g></g><g clip-path="url(#ba0647806b)"><g clip-path="url(#e7858dc0cd)"><g clip-path="url(#40dd54bbe3)"><path fill="#ffffff" d="M 28.882812 27.390625 L 31.710938 28.125 L 25.488281 52.199219 L 22.660156 51.46875 Z M 28.882812 27.390625 " fill-opacity="1" fill-rule="nonzero"/></g></g></g><g clip-path="url(#4c7e6374cf)"><g clip-path="url(#5c8dc26214)"><g clip-path="url(#04bdff30f0)"><path fill="#ffffff" d="M 29.929688 29.171875 L 30.664062 26.34375 L 54.738281 32.566406 L 54.007812 35.394531 Z M 29.929688 29.171875 " fill-opacity="1" fill-rule="nonzero"/></g></g></g><g clip-path="url(#6bee5c0534)"><g clip-path="url(#4bf0618cef)"><g clip-path="url(#b83836f94c)"><path fill="#ffffff" d="M 30.660156 26.34375 L 29.929688 29.171875 L 5.855469 22.949219 L 6.585938 20.121094 Z M 30.660156 26.34375 " fill-opacity="1" fill-rule="nonzero"/></g></g></g><g clip-path="url(#1979f31872)"><g clip-path="url(#0ad8e66f92)"><g clip-path="url(#b09120a43d)"><path fill="#ffffff" d="M 31.570312 28.476562 L 29.023438 27.035156 L 41.28125 5.398438 L 43.824219 6.839844 Z M 31.570312 28.476562 " fill-opacity="1" fill-rule="nonzero"/></g></g></g><g clip-path="url(#4fc28110b1)"><g clip-path="url(#a7b9480343)"><g clip-path="url(#9ea8d6b0e4)"><path fill="#ffffff" d="M 29.023438 27.039062 L 31.566406 28.476562 L 19.3125 50.113281 L 16.769531 48.675781 Z M 29.023438 27.039062 " fill-opacity="1" fill-rule="nonzero"/></g></g></g><g clip-path="url(#342508dc1d)"><g clip-path="url(#14f7abd256)"><g clip-path="url(#642a379be8)"><path fill="#ffffff" d="M 29.578125 29.027344 L 31.015625 26.484375 L 52.65625 38.742188 L 51.214844 41.285156 Z M 29.578125 29.027344 " fill-opacity="1" fill-rule="nonzero"/></g></g></g><g clip-path="url(#025d61b175)"><g clip-path="url(#908fd4cabc)"><g clip-path="url(#05dbc1b6c7)"><path fill="#ffffff" d="M 31.015625 26.484375 L 29.574219 29.027344 L 7.9375 16.773438 L 9.378906 14.230469 Z M 31.015625 26.484375 " fill-opacity="1" fill-rule="nonzero"/></g></g></g><g clip-path="url(#95c731f736)"><g clip-path="url(#25f37a0c5d)"><g clip-path="url(#df8b762f2d)"><path fill="#ffffff" d="M 31.332031 28.789062 L 29.261719 26.722656 L 46.847656 9.140625 L 48.914062 11.207031 Z M 31.332031 28.789062 " fill-opacity="1" fill-rule="nonzero"/></g></g></g><g clip-path="url(#be67e1adaa)"><g clip-path="url(#6ab2a40272)"><g clip-path="url(#1dce4cfc3e)"><path fill="#ffffff" d="M 29.261719 26.722656 L 31.328125 28.789062 L 13.746094 46.375 L 11.679688 44.308594 Z M 29.261719 26.722656 " fill-opacity="1" fill-rule="nonzero"/></g></g></g><g clip-path="url(#9f90d1fccd)"><g clip-path="url(#f7db728ea6)"><g clip-path="url(#4ad3c09a0a)"><path fill="#ffffff" d="M 29.265625 28.789062 L 31.332031 26.722656 L 48.914062 44.308594 L 46.847656 46.375 Z M 29.265625 28.789062 " fill-opacity="1" fill-rule="nonzero"/></g></g></g><g clip-path="url(#c09f0a2bab)"><g clip-path="url(#0b6545eaab)"><g clip-path="url(#7db092ed9d)"><path fill="#ffffff" d="M 31.328125 26.722656 L 29.261719 28.789062 L 11.679688 11.207031 L 13.746094 9.140625 Z M 31.328125 26.722656 " fill-opacity="1" fill-rule="nonzero"/></g></g></g><g clip-path="url(#539e23f9ba)"><g clip-path="url(#89d070c43a)"><g clip-path="url(#16fc3e0768)"><path fill="#ffffff" d="M 31.03125 29.019531 L 29.5625 26.492188 L 51.070312 14.007812 L 52.535156 16.535156 Z M 31.03125 29.019531 " fill-opacity="1" fill-rule="nonzero"/></g></g></g><g clip-path="url(#e78b4f36ca)"><g clip-path="url(#e561d27760)"><g clip-path="url(#6ca4225e9e)"><path fill="#ffffff" d="M 29.5625 26.492188 L 31.03125 29.019531 L 9.523438 41.503906 L 8.058594 38.976562 Z M 29.5625 26.492188 " fill-opacity="1" fill-rule="nonzero"/></g></g></g><g clip-path="url(#5819f964db)"><g clip-path="url(#a96591bb7d)"><g clip-path="url(#a94a1342a6)"><path fill="#ffffff" d="M 29.035156 28.492188 L 31.5625 27.023438 L 44.042969 48.53125 L 41.515625 49.996094 Z M 29.035156 28.492188 " fill-opacity="1" fill-rule="nonzero"/></g></g></g><g clip-path="url(#c1625e356c)"><g clip-path="url(#348ce046be)"><g clip-path="url(#38301754c8)"><path fill="#ffffff" d="M 31.558594 27.023438 L 29.03125 28.492188 L 16.546875 6.984375 L 19.078125 5.515625 Z M 31.558594 27.023438 " fill-opacity="1" fill-rule="nonzero"/></g></g></g><g clip-path="url(#23d3bb2fa5)"><g clip-path="url(#4ddd0f469c)"><g clip-path="url(#527e703eb3)"><path fill="#ffffff" d="M 30.570312 29.171875 L 29.828125 26.34375 L 53.886719 20.050781 L 54.625 22.878906 Z M 30.570312 29.171875 " fill-opacity="1" fill-rule="nonzero"/></g></g></g><g clip-path="url(#f1a5342dc2)"><g clip-path="url(#498ce9fdce)"><g clip-path="url(#4faa35090e)"><path fill="#ffffff" d="M 29.828125 26.34375 L 30.570312 29.171875 L 6.511719 35.464844 L 5.773438 32.636719 Z M 29.828125 26.34375 " fill-opacity="1" fill-rule="nonzero"/></g></g></g><g clip-path="url(#2e9edf197a)"><g clip-path="url(#53d6daa465)"><g clip-path="url(#8b0de723ac)"><path fill="#ffffff" d="M 28.785156 28.128906 L 31.613281 27.386719 L 37.90625 51.445312 L 35.078125 52.183594 Z M 28.785156 28.128906 " fill-opacity="1" fill-rule="nonzero"/></g></g></g><g clip-path="url(#b9893cf39d)"><g clip-path="url(#fd9d423dea)"><g clip-path="url(#2156062406)"><path fill="#ffffff" d="M 31.613281 27.386719 L 28.785156 28.125 L 22.492188 4.070312 L 25.320312 3.328125 Z M 31.613281 27.386719 " fill-opacity="1" fill-rule="nonzero"/></g></g></g><g fill="#ffffff" fill-opacity="1"><g transform="translate(69.096078, 38.851636)"><g><path d="M 1.875 0 L 1.875 -21.984375 L 4 -21.984375 L 4 -1.78125 L 15.890625 -1.78125 L 15.890625 0 Z M 1.875 0 "/></g></g></g><g fill="#ffffff" fill-opacity="1"><g transform="translate(85.665362, 38.851636)"><g><path d="M 2.734375 -19.09375 C 2.453125 -19.09375 2.179688 -19.191406 1.921875 -19.390625 C 1.660156 -19.585938 1.53125 -19.859375 1.53125 -20.203125 C 1.53125 -20.546875 1.660156 -20.816406 1.921875 -21.015625 C 2.179688 -21.210938 2.453125 -21.3125 2.734375 -21.3125 C 3.046875 -21.3125 3.320312 -21.210938 3.5625 -21.015625 C 3.8125 -20.816406 3.9375 -20.546875 3.9375 -20.203125 C 3.9375 -19.859375 3.8125 -19.585938 3.5625 -19.390625 C 3.320312 -19.191406 3.046875 -19.09375 2.734375 -19.09375 Z M 1.78125 0 L 1.78125 -15.8125 L 3.6875 -15.8125 L 3.6875 0 Z M 1.78125 0 "/></g></g></g><g fill="#ffffff" fill-opacity="1"><g transform="translate(91.137225, 38.851636)"><g><path d="M 7.96875 5.3125 C 6.550781 5.3125 5.351562 5.09375 4.375 4.65625 C 3.40625 4.21875 2.648438 3.644531 2.109375 2.9375 C 1.566406 2.226562 1.242188 1.472656 1.140625 0.671875 L 3.046875 0.671875 C 3.210938 1.492188 3.675781 2.222656 4.4375 2.859375 C 5.207031 3.492188 6.375 3.8125 7.9375 3.8125 C 9.507812 3.8125 10.738281 3.410156 11.625 2.609375 C 12.519531 1.816406 12.96875 0.566406 12.96875 -1.140625 L 12.96875 -4.25 L 12.921875 -4.25 C 12.503906 -3.300781 11.804688 -2.5 10.828125 -1.84375 C 9.859375 -1.1875 8.707031 -0.859375 7.375 -0.859375 C 6.1875 -0.859375 5.082031 -1.144531 4.0625 -1.71875 C 3.050781 -2.289062 2.242188 -3.140625 1.640625 -4.265625 C 1.035156 -5.398438 0.734375 -6.796875 0.734375 -8.453125 C 0.734375 -10.140625 1.035156 -11.546875 1.640625 -12.671875 C 2.242188 -13.796875 3.050781 -14.644531 4.0625 -15.21875 C 5.082031 -15.789062 6.1875 -16.078125 7.375 -16.078125 C 8.707031 -16.078125 9.851562 -15.753906 10.8125 -15.109375 C 11.78125 -14.460938 12.484375 -13.628906 12.921875 -12.609375 L 12.96875 -12.609375 L 12.96875 -15.8125 L 14.890625 -15.8125 L 14.890625 -1.046875 C 14.890625 1.191406 14.265625 2.8125 13.015625 3.8125 C 11.773438 4.8125 10.09375 5.3125 7.96875 5.3125 Z M 7.875 -2.375 C 8.726562 -2.375 9.539062 -2.597656 10.3125 -3.046875 C 11.082031 -3.492188 11.710938 -4.164062 12.203125 -5.0625 C 12.703125 -5.96875 12.953125 -7.097656 12.953125 -8.453125 C 12.953125 -9.828125 12.703125 -10.960938 12.203125 -11.859375 C 11.710938 -12.765625 11.082031 -13.4375 10.3125 -13.875 C 9.539062 -14.320312 8.726562 -14.546875 7.875 -14.546875 C 6.90625 -14.546875 6.019531 -14.320312 5.21875 -13.875 C 4.425781 -13.4375 3.796875 -12.765625 3.328125 -11.859375 C 2.867188 -10.960938 2.640625 -9.828125 2.640625 -8.453125 C 2.640625 -7.097656 2.867188 -5.96875 3.328125 -5.0625 C 3.796875 -4.164062 4.425781 -3.492188 5.21875 -3.046875 C 6.019531 -2.597656 6.90625 -2.375 7.875 -2.375 Z M 7.875 -2.375 "/></g></g></g><g fill="#ffffff" fill-opacity="1"><g transform="translate(107.552804, 38.851636)"><g><path d="M 1.5625 0 L 1.5625 -21.984375 L 3.5 -21.984375 L 3.5 -13.0625 L 3.5625 -13.0625 C 3.875 -13.582031 4.269531 -14.066406 4.75 -14.515625 C 5.226562 -14.960938 5.832031 -15.332031 6.5625 -15.625 C 7.289062 -15.925781 8.175781 -16.078125 9.21875 -16.078125 C 10.125 -16.078125 10.945312 -15.890625 11.6875 -15.515625 C 12.425781 -15.148438 13.015625 -14.601562 13.453125 -13.875 C 13.890625 -13.15625 14.109375 -12.25 14.109375 -11.15625 L 14.109375 0 L 12.203125 0 L 12.203125 -10.296875 C 12.203125 -11.078125 12.09375 -11.785156 11.875 -12.421875 C 11.664062 -13.054688 11.289062 -13.554688 10.75 -13.921875 C 10.207031 -14.296875 9.421875 -14.484375 8.390625 -14.484375 C 7.390625 -14.484375 6.519531 -14.269531 5.78125 -13.84375 C 5.039062 -13.425781 4.472656 -12.910156 4.078125 -12.296875 C 3.691406 -11.679688 3.5 -11.066406 3.5 -10.453125 L 3.5 0 Z M 1.5625 0 "/></g></g></g><g fill="#ffffff" fill-opacity="1"><g transform="translate(123.076896, 38.851636)"><g><path d="M 6 0.15625 C 4.988281 0.15625 4.195312 -0.15625 3.625 -0.78125 C 3.050781 -1.40625 2.765625 -2.539062 2.765625 -4.1875 L 2.765625 -14.265625 L 0.484375 -14.265625 L 0.484375 -15.8125 L 2.765625 -15.8125 L 2.765625 -20.71875 L 4.703125 -20.71875 L 4.703125 -15.8125 L 8 -15.8125 L 8 -14.265625 L 4.703125 -14.265625 L 4.703125 -4.453125 C 4.703125 -3.773438 4.757812 -3.191406 4.875 -2.703125 C 4.988281 -2.210938 5.28125 -1.859375 5.75 -1.640625 C 6.21875 -1.429688 6.96875 -1.414062 8 -1.59375 L 8 -0.09375 C 7.664062 -0.0078125 7.347656 0.0507812 7.046875 0.09375 C 6.753906 0.132812 6.40625 0.15625 6 0.15625 Z M 6 0.15625 "/></g></g></g><g fill="#ffffff" fill-opacity="1"><g transform="translate(131.899498, 38.851636)"><g><path d="M 1.5625 0 L 1.5625 -21.984375 L 3.5 -21.984375 L 3.5 -13.0625 L 3.5625 -13.0625 C 3.875 -13.582031 4.269531 -14.066406 4.75 -14.515625 C 5.226562 -14.960938 5.832031 -15.332031 6.5625 -15.625 C 7.289062 -15.925781 8.175781 -16.078125 9.21875 -16.078125 C 10.125 -16.078125 10.945312 -15.890625 11.6875 -15.515625 C 12.425781 -15.148438 13.015625 -14.601562 13.453125 -13.875 C 13.890625 -13.15625 14.109375 -12.25 14.109375 -11.15625 L 14.109375 0 L 12.203125 0 L 12.203125 -10.296875 C 12.203125 -11.078125 12.09375 -11.785156 11.875 -12.421875 C 11.664062 -13.054688 11.289062 -13.554688 10.75 -13.921875 C 10.207031 -14.296875 9.421875 -14.484375 8.390625 -14.484375 C 7.390625 -14.484375 6.519531 -14.269531 5.78125 -13.84375 C 5.039062 -13.425781 4.472656 -12.910156 4.078125 -12.296875 C 3.691406 -11.679688 3.5 -11.066406 3.5 -10.453125 L 3.5 0 Z M 1.5625 0 "/></g></g></g><g fill="#ffffff" fill-opacity="1"><g transform="translate(147.42359, 38.851636)"><g><path d="M 8.234375 0.375 C 6.679688 0.375 5.34375 0.03125 4.21875 -0.65625 C 3.101562 -1.34375 2.242188 -2.304688 1.640625 -3.546875 C 1.035156 -4.785156 0.734375 -6.21875 0.734375 -7.84375 C 0.734375 -9.476562 1.035156 -10.910156 1.640625 -12.140625 C 2.242188 -13.367188 3.101562 -14.332031 4.21875 -15.03125 C 5.34375 -15.726562 6.679688 -16.078125 8.234375 -16.078125 C 9.796875 -16.078125 11.140625 -15.726562 12.265625 -15.03125 C 13.390625 -14.332031 14.253906 -13.367188 14.859375 -12.140625 C 15.472656 -10.910156 15.78125 -9.476562 15.78125 -7.84375 C 15.78125 -6.21875 15.472656 -4.785156 14.859375 -3.546875 C 14.253906 -2.304688 13.390625 -1.34375 12.265625 -0.65625 C 11.140625 0.03125 9.796875 0.375 8.234375 0.375 Z M 8.234375 -1.140625 C 10.023438 -1.140625 11.40625 -1.757812 12.375 -3 C 13.351562 -4.238281 13.84375 -5.851562 13.84375 -7.84375 C 13.84375 -9.832031 13.351562 -11.445312 12.375 -12.6875 C 11.40625 -13.925781 10.023438 -14.546875 8.234375 -14.546875 C 6.453125 -14.546875 5.070312 -13.925781 4.09375 -12.6875 C 3.125 -11.445312 2.640625 -9.832031 2.640625 -7.84375 C 2.640625 -5.851562 3.125 -4.238281 4.09375 -3 C 5.070312 -1.757812 6.453125 -1.140625 8.234375 -1.140625 Z M 8.234375 -1.140625 "/></g></g></g><g fill="#ffffff" fill-opacity="1"><g transform="translate(163.900644, 38.851636)"><g><path d="M 6.25 0.28125 C 5.382812 0.28125 4.585938 0.0976562 3.859375 -0.265625 C 3.128906 -0.640625 2.539062 -1.195312 2.09375 -1.9375 C 1.644531 -2.675781 1.421875 -3.578125 1.421875 -4.640625 L 1.421875 -15.8125 L 3.359375 -15.8125 L 3.359375 -5.5 C 3.359375 -4.71875 3.460938 -4.007812 3.671875 -3.375 C 3.890625 -2.738281 4.269531 -2.238281 4.8125 -1.875 C 5.351562 -1.507812 6.128906 -1.328125 7.140625 -1.328125 C 8.179688 -1.328125 9.066406 -1.535156 9.796875 -1.953125 C 10.523438 -2.367188 11.082031 -2.890625 11.46875 -3.515625 C 11.851562 -4.140625 12.046875 -4.75 12.046875 -5.34375 L 12.046875 -15.8125 L 13.984375 -15.8125 L 13.984375 0 L 12.046875 0 L 12.046875 -2.703125 L 12 -2.703125 C 11.6875 -2.210938 11.285156 -1.738281 10.796875 -1.28125 C 10.304688 -0.832031 9.691406 -0.457031 8.953125 -0.15625 C 8.210938 0.132812 7.3125 0.28125 6.25 0.28125 Z M 6.25 0.28125 "/></g></g></g><g fill="#ffffff" fill-opacity="1"><g transform="translate(179.393998, 38.851636)"><g><path d="M 7.5625 0.375 C 5.988281 0.375 4.6875 0.140625 3.65625 -0.328125 C 2.632812 -0.804688 1.867188 -1.453125 1.359375 -2.265625 C 0.859375 -3.085938 0.578125 -4.003906 0.515625 -5.015625 L 2.375 -5.015625 C 2.445312 -3.847656 2.914062 -2.898438 3.78125 -2.171875 C 4.644531 -1.441406 5.882812 -1.078125 7.5 -1.078125 C 8.644531 -1.078125 9.609375 -1.351562 10.390625 -1.90625 C 11.171875 -2.457031 11.5625 -3.164062 11.5625 -4.03125 C 11.5625 -4.882812 11.332031 -5.519531 10.875 -5.9375 C 10.425781 -6.363281 9.816406 -6.6875 9.046875 -6.90625 C 8.285156 -7.132812 7.441406 -7.363281 6.515625 -7.59375 C 5.492188 -7.863281 4.566406 -8.144531 3.734375 -8.4375 C 2.898438 -8.738281 2.238281 -9.15625 1.75 -9.6875 C 1.257812 -10.21875 1.015625 -10.945312 1.015625 -11.875 C 1.015625 -13.125 1.523438 -14.132812 2.546875 -14.90625 C 3.578125 -15.6875 5.003906 -16.078125 6.828125 -16.078125 C 8.222656 -16.078125 9.347656 -15.851562 10.203125 -15.40625 C 11.066406 -14.957031 11.71875 -14.378906 12.15625 -13.671875 C 12.601562 -12.960938 12.867188 -12.21875 12.953125 -11.4375 L 11.09375 -11.4375 C 10.957031 -12.257812 10.5625 -13 9.90625 -13.65625 C 9.25 -14.3125 8.234375 -14.640625 6.859375 -14.640625 C 6.203125 -14.640625 5.570312 -14.546875 4.96875 -14.359375 C 4.363281 -14.171875 3.875 -13.878906 3.5 -13.484375 C 3.132812 -13.085938 2.953125 -12.582031 2.953125 -11.96875 C 2.953125 -11.351562 3.15625 -10.867188 3.5625 -10.515625 C 3.976562 -10.171875 4.546875 -9.894531 5.265625 -9.6875 C 5.992188 -9.476562 6.820312 -9.265625 7.75 -9.046875 C 8.851562 -8.773438 9.835938 -8.46875 10.703125 -8.125 C 11.566406 -7.789062 12.242188 -7.328125 12.734375 -6.734375 C 13.222656 -6.140625 13.46875 -5.3125 13.46875 -4.25 C 13.46875 -2.851562 12.9375 -1.734375 11.875 -0.890625 C 10.820312 -0.046875 9.382812 0.375 7.5625 0.375 Z M 7.5625 0.375 "/></g></g></g><g fill="#ffffff" fill-opacity="1"><g transform="translate(193.504013, 38.851636)"><g><path d="M 8.203125 0.375 C 6.671875 0.375 5.34375 0.03125 4.21875 -0.65625 C 3.101562 -1.34375 2.242188 -2.300781 1.640625 -3.53125 C 1.035156 -4.757812 0.734375 -6.195312 0.734375 -7.84375 C 0.734375 -9.539062 1.039062 -11.003906 1.65625 -12.234375 C 2.269531 -13.460938 3.128906 -14.410156 4.234375 -15.078125 C 5.347656 -15.742188 6.644531 -16.078125 8.125 -16.078125 C 9.71875 -16.078125 11.03125 -15.710938 12.0625 -14.984375 C 13.101562 -14.265625 13.875 -13.269531 14.375 -12 C 14.875 -10.738281 15.125 -9.289062 15.125 -7.65625 L 2.640625 -7.65625 C 2.640625 -5.601562 3.148438 -4.003906 4.171875 -2.859375 C 5.203125 -1.710938 6.535156 -1.140625 8.171875 -1.140625 C 9.242188 -1.140625 10.109375 -1.335938 10.765625 -1.734375 C 11.421875 -2.140625 11.925781 -2.625 12.28125 -3.1875 C 12.644531 -3.75 12.882812 -4.265625 13 -4.734375 L 14.90625 -4.734375 C 14.5625 -3.253906 13.832031 -2.03125 12.71875 -1.0625 C 11.613281 -0.101562 10.109375 0.375 8.203125 0.375 Z M 2.640625 -8.984375 L 13.21875 -8.984375 C 13.21875 -9.960938 13.03125 -10.878906 12.65625 -11.734375 C 12.289062 -12.597656 11.726562 -13.296875 10.96875 -13.828125 C 10.21875 -14.367188 9.269531 -14.640625 8.125 -14.640625 C 6.988281 -14.640625 6.015625 -14.378906 5.203125 -13.859375 C 4.398438 -13.347656 3.773438 -12.660156 3.328125 -11.796875 C 2.890625 -10.941406 2.660156 -10.003906 2.640625 -8.984375 Z M 2.640625 -8.984375 "/></g></g></g><g fill="#ffffff" fill-opacity="1"><g transform="translate(209.3091, 38.851636)"><g><path d="M 2 0 L 2 -21.984375 L 16.140625 -21.984375 L 16.140625 -21.125 L 2.984375 -21.125 L 2.984375 -11.90625 L 14.296875 -11.90625 L 14.296875 -11.046875 L 2.984375 -11.046875 L 2.984375 0 Z M 2 0 "/></g></g></g><g fill="#ffffff" fill-opacity="1"><g transform="translate(226.247268, 38.851636)"><g><path d="M 7.96875 0.34375 C 6.507812 0.34375 5.238281 0.00390625 4.15625 -0.671875 C 3.082031 -1.347656 2.253906 -2.300781 1.671875 -3.53125 C 1.085938 -4.757812 0.796875 -6.195312 0.796875 -7.84375 C 0.796875 -9.5625 1.097656 -11.03125 1.703125 -12.25 C 2.304688 -13.46875 3.140625 -14.398438 4.203125 -15.046875 C 5.273438 -15.691406 6.519531 -16.015625 7.9375 -16.015625 C 9.46875 -16.015625 10.722656 -15.664062 11.703125 -14.96875 C 12.691406 -14.28125 13.421875 -13.328125 13.890625 -12.109375 C 14.367188 -10.898438 14.609375 -9.53125 14.609375 -8 L 1.71875 -8 C 1.71875 -5.632812 2.285156 -3.785156 3.421875 -2.453125 C 4.566406 -1.128906 6.082031 -0.46875 7.96875 -0.46875 C 9.195312 -0.46875 10.1875 -0.707031 10.9375 -1.1875 C 11.695312 -1.664062 12.273438 -2.234375 12.671875 -2.890625 C 13.078125 -3.546875 13.34375 -4.160156 13.46875 -4.734375 L 14.390625 -4.734375 C 14.066406 -3.296875 13.375 -2.085938 12.3125 -1.109375 C 11.257812 -0.140625 9.8125 0.34375 7.96875 0.34375 Z M 1.71875 -8.796875 L 13.6875 -8.796875 C 13.6875 -9.859375 13.476562 -10.875 13.0625 -11.84375 C 12.65625 -12.820312 12.03125 -13.628906 11.1875 -14.265625 C 10.351562 -14.898438 9.269531 -15.21875 7.9375 -15.21875 C 6.644531 -15.21875 5.535156 -14.914062 4.609375 -14.3125 C 3.691406 -13.707031 2.988281 -12.914062 2.5 -11.9375 C 2.019531 -10.96875 1.757812 -9.921875 1.71875 -8.796875 Z M 1.71875 -8.796875 "/></g></g></g><g fill="#ffffff" fill-opacity="1"><g transform="translate(241.586918, 38.851636)"><g><path d="M 1.625 0 L 1.625 -15.8125 L 2.546875 -15.8125 L 2.546875 -12.421875 L 2.609375 -12.421875 C 2.960938 -13.441406 3.570312 -14.296875 4.4375 -14.984375 C 5.3125 -15.671875 6.289062 -16.015625 7.375 -16.015625 C 7.832031 -16.015625 8.210938 -15.984375 8.515625 -15.921875 L 8.515625 -15.125 L 8.453125 -15.125 C 7.453125 -15.289062 6.5 -15.160156 5.59375 -14.734375 C 4.695312 -14.316406 3.960938 -13.679688 3.390625 -12.828125 C 2.828125 -11.984375 2.546875 -10.976562 2.546875 -9.8125 L 2.546875 0 Z M 1.625 0 "/></g></g></g><g fill="#ffffff" fill-opacity="1"><g transform="translate(250.624708, 38.851636)"><g><path d="M 5.59375 0.09375 C 5.101562 0.09375 4.644531 -0.0078125 4.21875 -0.21875 C 3.800781 -0.4375 3.46875 -0.828125 3.21875 -1.390625 C 2.976562 -1.960938 2.859375 -2.78125 2.859375 -3.84375 L 2.859375 -15 L 0.546875 -15 L 0.546875 -15.8125 L 2.859375 -15.8125 L 2.859375 -20.90625 L 3.78125 -20.90625 L 3.78125 -15.8125 L 7.25 -15.8125 L 7.25 -15 L 3.78125 -15 L 3.78125 -4.09375 C 3.78125 -3.582031 3.800781 -3.085938 3.84375 -2.609375 C 3.882812 -2.140625 4.007812 -1.742188 4.21875 -1.421875 C 4.4375 -1.109375 4.78125 -0.894531 5.25 -0.78125 C 5.726562 -0.664062 6.394531 -0.703125 7.25 -0.890625 L 7.25 -0.09375 C 6.988281 -0.03125 6.726562 0.015625 6.46875 0.046875 C 6.21875 0.078125 5.925781 0.09375 5.59375 0.09375 Z M 5.59375 0.09375 "/></g></g></g><g fill="#ffffff" fill-opacity="1"><g transform="translate(258.771019, 38.851636)"><g><path d="M 2.421875 -19.59375 C 2.265625 -19.59375 2.097656 -19.65625 1.921875 -19.78125 C 1.742188 -19.914062 1.65625 -20.097656 1.65625 -20.328125 C 1.65625 -20.566406 1.742188 -20.75 1.921875 -20.875 C 2.097656 -21 2.265625 -21.0625 2.421875 -21.0625 C 2.609375 -21.0625 2.785156 -21 2.953125 -20.875 C 3.117188 -20.75 3.203125 -20.566406 3.203125 -20.328125 C 3.203125 -20.097656 3.117188 -19.914062 2.953125 -19.78125 C 2.785156 -19.65625 2.609375 -19.59375 2.421875 -19.59375 Z M 1.96875 0 L 1.96875 -15.8125 L 2.890625 -15.8125 L 2.890625 0 Z M 1.96875 0 "/></g></g></g><g fill="#ffffff" fill-opacity="1"><g transform="translate(263.628065, 38.851636)"><g><path d="M 1.71875 0 L 1.71875 -21.984375 L 2.640625 -21.984375 L 2.640625 0 Z M 1.71875 0 "/></g></g></g><g fill="#ffffff" fill-opacity="1"><g transform="translate(267.993251, 38.851636)"><g><path d="M 2.421875 -19.59375 C 2.265625 -19.59375 2.097656 -19.65625 1.921875 -19.78125 C 1.742188 -19.914062 1.65625 -20.097656 1.65625 -20.328125 C 1.65625 -20.566406 1.742188 -20.75 1.921875 -20.875 C 2.097656 -21 2.265625 -21.0625 2.421875 -21.0625 C 2.609375 -21.0625 2.785156 -21 2.953125 -20.875 C 3.117188 -20.75 3.203125 -20.566406 3.203125 -20.328125 C 3.203125 -20.097656 3.117188 -19.914062 2.953125 -19.78125 C 2.785156 -19.65625 2.609375 -19.59375 2.421875 -19.59375 Z M 1.96875 0 L 1.96875 -15.8125 L 2.890625 -15.8125 L 2.890625 0 Z M 1.96875 0 "/></g></g></g><g fill="#ffffff" fill-opacity="1"><g transform="translate(272.850297, 38.851636)"><g><path d="M 5.59375 0.09375 C 5.101562 0.09375 4.644531 -0.0078125 4.21875 -0.21875 C 3.800781 -0.4375 3.46875 -0.828125 3.21875 -1.390625 C 2.976562 -1.960938 2.859375 -2.78125 2.859375 -3.84375 L 2.859375 -15 L 0.546875 -15 L 0.546875 -15.8125 L 2.859375 -15.8125 L 2.859375 -20.90625 L 3.78125 -20.90625 L 3.78125 -15.8125 L 7.25 -15.8125 L 7.25 -15 L 3.78125 -15 L 3.78125 -4.09375 C 3.78125 -3.582031 3.800781 -3.085938 3.84375 -2.609375 C 3.882812 -2.140625 4.007812 -1.742188 4.21875 -1.421875 C 4.4375 -1.109375 4.78125 -0.894531 5.25 -0.78125 C 5.726562 -0.664062 6.394531 -0.703125 7.25 -0.890625 L 7.25 -0.09375 C 6.988281 -0.03125 6.726562 0.015625 6.46875 0.046875 C 6.21875 0.078125 5.925781 0.09375 5.59375 0.09375 Z M 5.59375 0.09375 "/></g></g></g><g fill="#ffffff" fill-opacity="1"><g transform="translate(280.996608, 38.851636)"><g><path d="M 3.234375 5.203125 C 2.796875 5.203125 2.421875 5.164062 2.109375 5.09375 C 1.804688 5.019531 1.566406 4.953125 1.390625 4.890625 L 1.390625 4.09375 L 1.4375 4.09375 C 1.976562 4.195312 2.535156 4.269531 3.109375 4.3125 C 3.679688 4.363281 4.148438 4.195312 4.515625 3.8125 C 4.847656 3.488281 5.191406 2.953125 5.546875 2.203125 C 5.910156 1.453125 6.191406 0.695312 6.390625 -0.0625 L 0.15625 -15.8125 L 1.140625 -15.8125 L 6.859375 -1.328125 L 6.890625 -1.328125 L 12.390625 -15.8125 L 13.375 -15.8125 L 7.171875 0.515625 C 6.796875 1.503906 6.4375 2.347656 6.09375 3.046875 C 5.757812 3.742188 5.375 4.273438 4.9375 4.640625 C 4.5 5.015625 3.929688 5.203125 3.234375 5.203125 Z M 3.234375 5.203125 "/></g></g></g></svg>