<?xml version="1.0" standalone="no"?>
<!DOCTYPE svg PUBLIC "-//W3C//DTD SVG 20010904//EN"
 "http://www.w3.org/TR/2001/REC-SVG-20010904/DTD/svg10.dtd">
<svg version="1.0" xmlns="http://www.w3.org/2000/svg"
 width="1563.000000pt" height="1563.000000pt" viewBox="0 0 1563.000000 1563.000000"
 preserveAspectRatio="xMidYMid meet">

<g transform="translate(0.000000,1563.000000) scale(0.100000,-0.100000)"
fill="#000000" stroke="none">
<path d="M7370 15443 c0 -48 439 -7520 443 -7553 3 -21 4 -21 6 5 0 17 100
1714 221 3770 121 2056 220 3756 220 3777 l0 38 -445 0 -445 0 0 -37z"/>
<path d="M5842 15235 c-233 -62 -425 -114 -427 -116 -2 -3 16 -65 40 -139
1579 -4852 2265 -6964 2262 -6966 -1 -2 -756 1491 -1677 3317 -921 1826 -1678
3325 -1682 3331 -4 7 -146 -70 -380 -205 -205 -119 -379 -221 -387 -226 -11
-7 3 -36 71 -138 46 -70 982 -1485 2080 -3143 1097 -1658 2000 -3026 2007
-3038 7 -13 11 -25 9 -27 -2 -2 -1137 1272 -2523 2831 -1386 1559 -2522 2834
-2525 2834 -3 0 -147 -142 -320 -316 l-315 -315 26 -22 c15 -12 1296 -1151
2847 -2531 1651 -1468 2819 -2514 2815 -2520 -4 -6 0 -5 9 2 15 12 15 17 3 46
-8 18 -343 1680 -744 3692 -402 2012 -736 3683 -742 3712 -6 28 -13 52 -17 51
-4 0 -197 -52 -430 -114z"/>
<path d="M9295 15328 c-14 -56 -1464 -7442 -1462 -7444 2 -2 514 1586 2158
6691 98 302 177 551 176 552 -2 2 -858 223 -864 223 -1 0 -5 -10 -8 -22z"/>
<path d="M9540 11322 c-1933 -3936 -1694 -3448 -1686 -3441 9 8 4118 6362
4123 6375 3 7 -142 95 -344 210 -191 108 -366 207 -388 220 l-41 24 -1664
-3388z"/>
<path d="M10386 10705 c-1391 -1564 -2533 -2842 -2539 -2838 -6 4 -7 1 -2 -6
5 -9 16 -5 39 17 33 31 5617 4995 5651 5024 20 17 13 24 -295 332 -173 174
-317 316 -320 316 -3 0 -1143 -1280 -2534 -2845z"/>
<path d="M11065 9964 c-1732 -1147 -3172 -2099 -3200 -2116 -27 -16 -42 -27
-32 -24 10 3 1689 339 3730 746 2042 408 3722 744 3733 748 21 7 19 17 -91
437 -100 383 -115 430 -131 427 -11 -2 -1630 -528 -3598 -1168 -1969 -640
-3580 -1163 -3582 -1162 -1 2 1522 772 3384 1712 1863 940 3389 1710 3391
1712 4 4 -442 774 -449 774 -3 0 -1422 -939 -3155 -2086z"/>
<path d="M1336 11938 c-89 -154 -415 -732 -413 -734 4 -4 6609 -3249 6717
-3301 63 -30 111 -50 105 -45 -14 13 -6374 4122 -6379 4122 -3 0 -16 -19 -30
-42z"/>
<path d="M500 10167 c0 -3 -50 -198 -111 -433 -109 -425 -113 -443 -77 -444 4
0 1678 -328 3719 -730 2042 -401 3714 -729 3715 -727 1 1 -1623 526 -3609
1166 -1987 640 -3618 1166 -3624 1168 -7 3 -13 3 -13 0z"/>
<path d="M150 7815 l0 -445 28 0 c41 0 7533 439 7562 443 22 4 21 4 -5 6 -16
0 -1717 100 -3780 221 -2062 121 -3762 220 -3777 220 l-28 0 0 -445z"/>
<path d="M11655 8039 c-2029 -120 -3712 -219 -3740 -220 -27 -1 -39 -4 -25 -6
29 -4 7521 -443 7563 -443 l27 0 0 445 0 445 -67 -1 c-38 -1 -1728 -100 -3758
-220z"/>
<path d="M3985 7056 c-2041 -408 -3715 -744 -3721 -747 -8 -3 26 -149 101
-434 100 -384 114 -430 131 -427 17 3 6997 2271 7159 2327 39 13 63 23 55 23
-8 0 -1684 -334 -3725 -742z"/>
<path d="M7885 7795 c21 -10 7239 -2334 7242 -2332 1 2 52 196 113 432 111
426 114 444 78 445 -4 0 -1667 326 -3695 725 -3805 748 -3755 738 -3738 730z"/>
<path d="M7763 7784 c4 -6 -1163 -1051 -2815 -2520 -1551 -1380 -2832 -2519
-2847 -2531 l-26 -22 318 -318 318 -318 27 30 c15 17 1154 1298 2531 2847
1377 1550 2507 2815 2512 2813 4 -3 11 0 15 7 4 7 4 10 -1 6 -4 -4 -15 -2 -23
5 -9 6 -13 7 -9 1z"/>
<path d="M7849 7773 c-8 -9 -9 -14 -3 -10 7 4 1034 -1144 2515 -2811 1377
-1549 2516 -2830 2531 -2847 l27 -30 318 318 318 318 -26 22 c-180 151 -5667
5042 -5663 5048 9 16 -3 10 -17 -8z"/>
<path d="M4360 6070 c-1862 -940 -3389 -1711 -3395 -1713 -5 -2 92 -178 215
-390 131 -226 230 -385 236 -383 14 5 6314 4174 6329 4187 5 5 7 9 5 9 -3 -1
-1528 -770 -3390 -1710z"/>
<path d="M7885 7772 c41 -37 6379 -4122 6385 -4115 11 10 440 766 437 769 -5
4 -6611 3250 -6717 3301 -63 30 -110 50 -105 45z"/>
<path d="M7795 7748 c-3 -7 -514 -1592 -1135 -3523 -622 -1931 -1146 -3557
-1165 -3615 -18 -58 -33 -106 -32 -107 11 -10 862 -221 866 -214 3 5 334 1678
735 3718 401 2039 731 3710 733 3712 1 2 5 2 8 -1 3 -3 -94 -1690 -215 -3749
-121 -2059 -220 -3761 -220 -3781 l0 -38 445 0 445 0 0 34 c0 19 -97 1681
-215 3694 -118 2012 -214 3668 -214 3678 1 10 329 -1621 730 -3625 400 -2004
730 -3645 731 -3647 4 -3 857 222 863 228 2 2 -16 64 -40 138 -1094 3352
-2295 7060 -2295 7082 0 28 -17 39 -25 16z"/>
<path d="M5716 4568 c-1132 -1751 -2059 -3189 -2060 -3196 -1 -11 763 -456
770 -449 4 4 3246 6602 3300 6715 29 61 52 112 51 112 -2 0 -929 -1432 -2061
-3182z"/>
<path d="M7918 7615 c148 -297 3354 -6650 3358 -6654 2 -3 698 396 763 438 11
7 -7 42 -91 168 -57 87 -999 1510 -2092 3163 -1094 1653 -1993 3010 -1998
3015 -6 6 21 -53 60 -130z"/>
</g>
</svg>
