<svg width="92" height="74" viewBox="0 0 92 74" fill="none" xmlns="http://www.w3.org/2000/svg">
<path d="M73.9191 73.2256C61.1561 73.2256 53.1792 62.722 53.1792 45.6536C53.1792 18.6069 73.6532 0.225586 86.1503 0.225586C89.341 0.225586 90.6705 1.80112 90.6705 3.63926C90.6705 5.73997 88.8092 7.5781 85.8844 9.94141C80.0347 14.668 72.3237 21.758 72.0578 36.2004H72.5896C84.289 36.2004 92 44.0781 92 54.8443C92 65.8731 84.5549 73.2256 73.9191 73.2256ZM0 45.6536C0 18.6069 20.474 0.225586 33.237 0.225586C36.4277 0.225586 37.7572 1.80112 37.7572 3.63926C37.7572 5.73997 35.6301 7.5781 32.9711 9.94141C27.1214 14.668 19.1445 21.758 18.8786 36.2004H19.4104C31.3757 36.2004 39.0867 44.0781 39.0867 54.8443C39.0867 65.8731 31.6416 73.2256 20.7399 73.2256C7.97688 73.2256 0 62.722 0 45.6536Z" fill="#0c3e6b"/>
</svg>
